<?xml version="1.0" encoding="UTF-8" standalone="no"?>
<!-- Created with Fritzing (http://www.fritzing.org/) -->

<svg
   xmlns:dc="http://purl.org/dc/elements/1.1/"
   xmlns:cc="http://creativecommons.org/ns#"
   xmlns:rdf="http://www.w3.org/1999/02/22-rdf-syntax-ns#"
   xmlns:svg="http://www.w3.org/2000/svg"
   xmlns="http://www.w3.org/2000/svg"
   xmlns:sodipodi="http://sodipodi.sourceforge.net/DTD/sodipodi-0.dtd"
   xmlns:inkscape="http://www.inkscape.org/namespaces/inkscape"
   width="99.212593"
   x="0mm"
   version="1.2"
   y="0mm"
   height="70.866142"
   viewBox="0 0 2016 1440.0001"
   id="svg2"
   inkscape:version="0.48.5 r10040"
   sodipodi:docname="Particle_p1_pcb.svg">
  <metadata
     id="metadata190">
    <rdf:RDF>
      <cc:Work
         rdf:about="">
        <dc:format>image/svg+xml</dc:format>
        <dc:type
           rdf:resource="http://purl.org/dc/dcmitype/StillImage" />
        <dc:title />
      </cc:Work>
    </rdf:RDF>
  </metadata>
  <defs
     id="defs188" />
  <sodipodi:namedview
     pagecolor="#ffffff"
     bordercolor="#666666"
     borderopacity="1"
     objecttolerance="10"
     gridtolerance="10"
     guidetolerance="10"
     inkscape:pageopacity="0"
     inkscape:pageshadow="2"
     inkscape:window-width="1315"
     inkscape:window-height="846"
     id="namedview186"
     showgrid="false"
     units="mm"
     showguides="true"
     inkscape:guide-bbox="true"
     inkscape:document-units="mm"
     inkscape:zoom="5.6568543"
     inkscape:cx="44.792111"
     inkscape:cy="21.564901"
     inkscape:window-x="0"
     inkscape:window-y="0"
     inkscape:window-maximized="0"
     inkscape:current-layer="svg2">
    <inkscape:grid
       type="xygrid"
       id="grid3167"
       empspacing="5"
       visible="true"
       enabled="true"
       snapvisiblegridlinesonly="true"
       units="mm" />
  </sodipodi:namedview>
  <desc
     id="desc4">Fritzing footprint generated by brd2svg</desc>
  <g
     id="silkscreen">
    <rect
       y="3.6159985"
       x="3.6159453"
       height="1432.7682"
       width="791.96814"
       id="rect3255"
       style="fill:none;stroke:#000000;stroke-width:7.23190689;stroke-miterlimit:4;stroke-opacity:1;stroke-dasharray:none" />
    <rect
       width="2008.6989"
       height="1432.6989"
       y="3.6506824"
       x="3.6506135"
       id="rect3257"
       style="fill:none;stroke:#000000;stroke-width:7.30124331;stroke-miterlimit:4;stroke-opacity:1;stroke-dasharray:none" />
    <path
       inkscape:connector-curvature="0"
       id="path4027"
       d="M 3.8310111,3.8310314 C 795.36902,1421.7008 795.36902,1421.7008 795.36902,1421.7008 l 0,14.4683 0,-14.4683"
       style="fill:none;stroke:#000000;stroke-width:7.66203785;stroke-linecap:butt;stroke-linejoin:miter;stroke-miterlimit:4;stroke-opacity:1;stroke-dasharray:none" />
    <path
       inkscape:connector-curvature="0"
       id="path4031"
       d="M 795.60135,3.5908306 3.5828996,1436.4093"
       style="fill:none;stroke:#000000;stroke-width:7.18159485;stroke-linecap:butt;stroke-linejoin:miter;stroke-miterlimit:4;stroke-opacity:1;stroke-dasharray:none" />
  </g>
  <g
     inkscape:groupmode="layer"
     id="layer4"
     inkscape:label="#silkscreen" />
  <g
     id="copper1">
    <g
       transform="matrix(1,0,0,1.3001057,0,1404.491)"
       id="g7"
       style="stroke-width:0">
      <title
         id="title9">element:E$1</title>
      <g
         id="g11"
         style="stroke-width:0">
        <title
           id="title13">package:QFN-64</title>
        <line
           y1="0.85209101"
           x1="0.85209101"
           y2="1.70249"
           x2="0.85209101"
           id="line15"
           style="stroke:#ffffff;stroke-width:0.57599998;stroke-linecap:round" />
        <line
           y1="0.85209101"
           x1="0.85209101"
           y2="0.85209101"
           x2="1.70249"
           id="line17"
           style="stroke:#ffffff;stroke-width:0.57599998;stroke-linecap:round" />
        <line
           y1="0.85209101"
           x1="26.363899"
           y2="0.85209101"
           x2="25.5135"
           id="line19"
           style="stroke:#ffffff;stroke-width:0.57599998;stroke-linecap:round" />
        <line
           y1="0.85209101"
           x1="26.363899"
           y2="1.70249"
           x2="26.363899"
           id="line21"
           style="stroke:#ffffff;stroke-width:0.57599998;stroke-linecap:round" />
        <line
           y1="26.363899"
           x1="26.363899"
           y2="25.5135"
           x2="26.363899"
           id="line23"
           style="stroke:#ffffff;stroke-width:0.57599998;stroke-linecap:round" />
        <line
           y1="26.363899"
           x1="26.363899"
           y2="26.363899"
           x2="25.5135"
           id="line25"
           style="stroke:#ffffff;stroke-width:0.57599998;stroke-linecap:round" />
        <line
           y1="26.363899"
           x1="0.85209101"
           y2="25.5135"
           x2="0.85209101"
           id="line27"
           style="stroke:#ffffff;stroke-width:0.57599998;stroke-linecap:round" />
        <line
           y1="26.363899"
           x1="0.85209101"
           y2="26.363899"
           x2="1.70249"
           id="line29"
           style="stroke:#ffffff;stroke-width:0.57599998;stroke-linecap:round" />
        <circle
           cx="3.85115"
           cy="3.82847"
           r="0.56692898"
           id="circle31"
           sodipodi:cx="3.85115"
           sodipodi:cy="3.82847"
           sodipodi:rx="0.56692898"
           sodipodi:ry="0.56692898"
           style="fill:none;stroke:#ffffff;stroke-width:0.57599998"
           d="m 4.418079,3.82847 c 0,0.3131062 -0.2538227,0.566929 -0.566929,0.566929 -0.3131062,0 -0.5669289,-0.2538228 -0.5669289,-0.566929 0,-0.3131062 0.2538227,-0.566929 0.5669289,-0.566929 0.3131063,0 0.566929,0.2538228 0.566929,0.566929 z" />
      </g>
    </g>
    <rect
       style="fill:#f7bd13;stroke:none"
       id="connector1pad"
       height="86.400009"
       y="-1440.0001"
       x="-921.60004"
       width="43.200005"
       transform="scale(-1,-1)" />
    <rect
       transform="matrix(0,-1,1,0,0,0)"
       width="43.200005"
       x="-237.59998"
       y="799.20001"
       height="86.400009"
       id="connector49pad"
       style="fill:#f7bd13;stroke:none" />
    <rect
       style="fill:#f7bd13;stroke:none"
       id="connector33pad"
       height="86.400009"
       y="0"
       x="1886.4001"
       width="43.200005" />
    <rect
       style="fill:#f7bd13;stroke:none"
       id="connector2pad"
       height="86.400009"
       y="-1439.9932"
       x="-993.60004"
       width="43.200005"
       transform="scale(-1,-1)" />
    <rect
       style="fill:#f7bd13;stroke:none"
       id="connector41pad"
       height="86.400009"
       y="0"
       x="1310.4"
       width="43.200005" />
    <rect
       style="fill:#f7bd13;stroke:none"
       id="connector3pad"
       height="86.400009"
       y="-1439.9932"
       x="-1065.6001"
       width="43.200005"
       transform="scale(-1,-1)" />
    <rect
       transform="matrix(0,-1,1,0,0,0)"
       width="43.200005"
       x="-813.60004"
       y="799.20001"
       height="86.400009"
       id="connector57pad"
       style="fill:#f7bd13;stroke:none" />
    <rect
       style="fill:#f7bd13;stroke:none"
       id="connector4pad"
       height="86.400009"
       y="-1439.9958"
       x="-1137.6001"
       width="43.200005"
       transform="scale(-1,-1)" />
    <rect
       style="fill:#f7bd13;stroke:none"
       id="connector37pad"
       height="86.400009"
       y="0"
       x="1598.4001"
       width="43.200005" />
    <rect
       style="fill:#f7bd13;stroke:none"
       id="connector5pad"
       height="86.400009"
       y="-1439.9958"
       x="-1209.6001"
       width="43.200005"
       transform="scale(-1,-1)" />
    <rect
       style="fill:#f7bd13;stroke:none"
       id="connector45pad"
       height="86.400009"
       y="0"
       x="1022.4001"
       width="43.200005" />
    <rect
       style="fill:#f7bd13;stroke:none"
       id="connector6pad"
       height="86.400009"
       y="-1439.9932"
       x="-1281.6001"
       width="43.200005"
       transform="scale(-1,-1)" />
    <rect
       transform="matrix(0,-1,1,0,0,0)"
       width="43.200005"
       x="-525.60004"
       y="799.20001"
       height="86.400009"
       id="connector53pad"
       style="fill:#f7bd13;stroke:none" />
    <rect
       style="fill:#f7bd13;stroke:none"
       id="connector7pad"
       height="86.400009"
       y="-1439.9984"
       x="-1353.6001"
       width="43.200005"
       transform="scale(-1,-1)" />
    <rect
       transform="matrix(0,-1,1,0,0,0)"
       width="43.200005"
       x="-1101.6001"
       y="799.20001"
       height="86.400009"
       id="connector61pad"
       style="fill:#f7bd13;stroke:none" />
    <rect
       style="fill:#f7bd13;stroke:none"
       id="connector8pad"
       height="86.400009"
       y="-1439.9984"
       x="-1425.6001"
       width="43.200005"
       transform="scale(-1,-1)" />
    <rect
       style="fill:#f7bd13;stroke:none"
       id="connector35pad"
       height="86.400009"
       y="0"
       x="1742.4001"
       width="43.200005" />
    <rect
       style="fill:#f7bd13;stroke:none"
       id="connector9pad"
       height="86.400009"
       y="-1439.9932"
       x="-1497.6001"
       width="43.200005"
       transform="scale(-1,-1)" />
    <rect
       style="fill:#f7bd13;stroke:none"
       id="connector39pad"
       height="86.400009"
       y="0"
       x="1454.4"
       width="43.200005" />
    <rect
       style="fill:#f7bd13;stroke:none"
       id="connector10pad"
       height="86.400009"
       y="-1439.9932"
       x="-1569.6001"
       width="43.200005"
       transform="scale(-1,-1)" />
    <rect
       style="fill:#f7bd13;stroke:none"
       id="connector43pad"
       height="86.400009"
       y="0"
       x="1166.4"
       width="43.200005" />
    <rect
       style="fill:#f7bd13;stroke:none"
       id="connector11pad"
       height="86.400009"
       y="-1439.988"
       x="-1641.6001"
       width="43.200005"
       transform="scale(-1,-1)" />
    <rect
       style="fill:#f7bd13;stroke:none"
       id="connector47pad"
       height="86.400009"
       y="0"
       x="878.40002"
       width="43.200005" />
    <rect
       style="fill:#f7bd13;stroke:none"
       id="connector12pad"
       height="86.400009"
       y="-1439.9933"
       x="-1713.6001"
       width="43.200005"
       transform="scale(-1,-1)" />
    <rect
       transform="matrix(0,-1,1,0,0,0)"
       width="43.200005"
       x="-381.59998"
       y="799.20001"
       height="86.400009"
       id="connector51pad"
       style="fill:#f7bd13;stroke:none" />
    <rect
       style="fill:#f7bd13;stroke:none"
       id="connector13pad"
       height="86.400009"
       y="-1439.9932"
       x="-1785.6001"
       width="43.200005"
       transform="scale(-1,-1)" />
    <rect
       transform="matrix(0,-1,1,0,0,0)"
       width="43.200005"
       x="-669.60004"
       y="799.20001"
       height="86.400009"
       id="connector55pad"
       style="fill:#f7bd13;stroke:none" />
    <rect
       style="fill:#f7bd13;stroke:none"
       id="connector14pad"
       height="86.400009"
       y="1353.5922"
       x="1814.4001"
       width="43.200005" />
    <rect
       transform="matrix(0,-1,1,0,0,0)"
       width="43.200005"
       x="-957.6001"
       y="799.20001"
       height="86.400009"
       id="connector59pad"
       style="fill:#f7bd13;stroke:none" />
    <rect
       style="fill:#f7bd13;stroke:none"
       id="connector15pad"
       height="86.400009"
       y="1353.5922"
       x="1886.4001"
       width="43.200005" />
    <rect
       transform="matrix(0,-1,1,0,0,0)"
       width="43.200005"
       x="-1245.6001"
       y="799.20001"
       height="86.400009"
       id="connector63pad"
       style="fill:#f7bd13;stroke:none" />
    <rect
       style="fill:#f7bd13;stroke:none"
       id="connector16pad"
       height="86.400009"
       y="-2016.0001"
       x="1274.4001"
       width="43.200005"
       transform="matrix(0,1,-1,0,0,0)" />
    <rect
       style="fill:#f7bd13;stroke:none"
       id="connector34pad"
       height="86.400009"
       y="0"
       x="1814.4001"
       width="43.200005" />
    <rect
       style="fill:#f7bd13;stroke:none"
       id="connector17pad"
       height="86.400009"
       y="-2016.0001"
       x="1202.4001"
       width="43.200005"
       transform="matrix(0,1,-1,0,0,0)" />
    <rect
       style="fill:#f7bd13;stroke:none"
       id="connector36pad"
       height="86.400009"
       y="0"
       x="1670.4001"
       width="43.200005" />
    <rect
       style="fill:#f7bd13;stroke:none"
       id="connector18pad"
       height="86.400009"
       y="-2016.0001"
       x="1130.4001"
       width="43.200005"
       transform="matrix(0,1,-1,0,0,0)" />
    <rect
       style="fill:#f7bd13;stroke:none"
       id="connector38pad"
       height="86.400009"
       y="0"
       x="1526.4001"
       width="43.200005" />
    <rect
       style="fill:#f7bd13;stroke:none"
       id="connector19pad"
       height="86.400009"
       y="-2016.0011"
       x="1058.4"
       width="43.200005"
       transform="matrix(0,1,-1,0,0,0)" />
    <rect
       style="fill:#f7bd13;stroke:none"
       id="connector40pad"
       height="86.400009"
       y="0"
       x="1382.4"
       width="43.200005" />
    <rect
       style="fill:#f7bd13;stroke:none"
       id="connector20pad"
       height="86.400009"
       y="-2016.0011"
       x="986.40002"
       width="43.200005"
       transform="matrix(0,1,-1,0,0,0)" />
    <rect
       style="fill:#f7bd13;stroke:none"
       id="connector42pad"
       height="86.400009"
       y="0"
       x="1238.4"
       width="43.200005" />
    <rect
       style="fill:#f7bd13;stroke:none"
       id="connector21pad"
       height="86.400009"
       y="-2016.0011"
       x="914.40009"
       width="43.200005"
       transform="matrix(0,1,-1,0,0,0)" />
    <rect
       style="fill:#f7bd13;stroke:none"
       id="connector44pad"
       height="86.400009"
       y="0"
       x="1094.4"
       width="43.200005" />
    <rect
       style="fill:#f7bd13;stroke:none"
       id="connector22pad"
       height="86.400009"
       y="-2016.0011"
       x="842.40002"
       width="43.200005"
       transform="matrix(0,1,-1,0,0,0)" />
    <rect
       style="fill:#f7bd13;stroke:none"
       id="connector46pad"
       height="86.400009"
       y="0"
       x="950.40002"
       width="43.200005" />
    <rect
       style="fill:#f7bd13;stroke:none"
       id="connector23pad"
       height="86.400009"
       y="-2016.0011"
       x="770.40002"
       width="43.200005"
       transform="matrix(0,1,-1,0,0,0)" />
    <rect
       width="43.200005"
       x="122.40002"
       y="799.20001"
       height="86.400009"
       id="connector48pad"
       style="fill:#f7bd13;stroke:none"
       transform="matrix(0,1,1,0,0,0)" />
    <rect
       style="fill:#f7bd13;stroke:none"
       id="connector24pad"
       height="86.400009"
       y="-2016.0011"
       x="698.40002"
       width="43.200005"
       transform="matrix(0,1,-1,0,0,0)" />
    <rect
       transform="matrix(0,-1,1,0,0,0)"
       width="43.200005"
       x="-309.59998"
       y="799.20001"
       height="86.400009"
       id="connector50pad"
       style="fill:#f7bd13;stroke:none" />
    <rect
       style="fill:#f7bd13;stroke:none"
       id="connector25pad"
       height="86.400009"
       y="-2016.0011"
       x="626.40002"
       width="43.200005"
       transform="matrix(0,1,-1,0,0,0)" />
    <rect
       transform="matrix(0,-1,1,0,0,0)"
       width="43.200005"
       x="-453.60004"
       y="799.20001"
       height="86.400009"
       id="connector52pad"
       style="fill:#f7bd13;stroke:none" />
    <rect
       style="fill:#f7bd13;stroke:none"
       id="connector26pad"
       height="86.400009"
       y="-2016.0011"
       x="554.40002"
       width="43.200005"
       transform="matrix(0,1,-1,0,0,0)" />
    <rect
       transform="matrix(0,-1,1,0,0,0)"
       width="43.200005"
       x="-597.60004"
       y="799.20001"
       height="86.400009"
       id="connector54pad"
       style="fill:#f7bd13;stroke:none" />
    <rect
       style="fill:#f7bd13;stroke:none"
       id="connector27pad"
       height="86.400009"
       y="-2016.0011"
       x="482.40002"
       width="43.200005"
       transform="matrix(0,1,-1,0,0,0)" />
    <rect
       transform="matrix(0,-1,1,0,0,0)"
       width="43.200005"
       x="-741.60004"
       y="799.20001"
       height="86.400009"
       id="connector56pad"
       style="fill:#f7bd13;stroke:none" />
    <rect
       transform="matrix(0,-1,1,0,0,0)"
       width="43.200005"
       x="-453.60004"
       y="1929.6001"
       height="86.400009"
       id="connector28pad"
       style="fill:#f7bd13;stroke:none" />
    <rect
       transform="matrix(0,-1,1,0,0,0)"
       width="43.200005"
       x="-885.60004"
       y="799.20001"
       height="86.400009"
       id="connector58pad"
       style="fill:#f7bd13;stroke:none" />
    <rect
       transform="matrix(0,-1,1,0,0,0)"
       width="43.200005"
       x="-381.59998"
       y="1929.6001"
       height="86.400009"
       id="connector29pad"
       style="fill:#f7bd13;stroke:none" />
    <rect
       transform="matrix(0,-1,1,0,0,0)"
       width="43.200005"
       x="-1029.6001"
       y="799.20001"
       height="86.400009"
       id="connector60pad"
       style="fill:#f7bd13;stroke:none" />
    <rect
       transform="matrix(0,-1,1,0,0,0)"
       width="43.200005"
       x="-309.59998"
       y="1929.6001"
       height="86.400009"
       id="connector30pad"
       style="fill:#f7bd13;stroke:none" />
    <rect
       transform="matrix(0,-1,1,0,0,0)"
       width="43.200005"
       x="-1173.6001"
       y="799.20001"
       height="86.400009"
       id="connector62pad"
       style="fill:#f7bd13;stroke:none" />
    <rect
       transform="matrix(0,-1,1,0,0,0)"
       width="43.200005"
       x="-237.59998"
       y="1929.6001"
       height="86.400009"
       id="connector31pad"
       style="fill:#f7bd13;stroke:none" />
    <rect
       style="fill:#f7bd13;stroke:none"
       id="connector32pad"
       height="43.200005"
       y="122.3999"
       x="1929.6001"
       width="86.400009" />
    <rect
       style="fill:#f7bd13;stroke:none"
       id="connector64pad"
       height="43.200005"
       y="-1317.6001"
       x="-885.60004"
       width="86.400009"
       transform="scale(-1,-1)" />
    <rect
       style="fill:#f7bd13;fill-opacity:1;stroke-width:0"
       id="connector65pad"
       width="86.400009"
       height="86.400009"
       x="1144.8"
       y="928.80005" />
    <rect
       style="fill:#f7bd13;fill-opacity:1;stroke-width:0"
       id="connector68pad"
       width="86.400009"
       height="86.400009"
       x="1144.8"
       y="676.80005" />
    <rect
       style="fill:#f7bd13;fill-opacity:1;stroke-width:0"
       id="connector69pad"
       width="86.400009"
       height="86.400009"
       x="1360.8"
       y="676.80005" />
    <rect
       style="fill:#f7bd13;fill-opacity:1;stroke-width:0"
       id="connector66pad"
       width="86.400009"
       height="86.400009"
       x="1360.8"
       y="928.80005" />
    <rect
       style="fill:#f7bd13;fill-opacity:1;stroke-width:0"
       id="connector67pad"
       width="86.400009"
       height="86.400009"
       x="1576.8"
       y="928.80005" />
    <rect
       style="fill:#f7bd13;fill-opacity:1;stroke-width:0"
       id="connector70pad"
       width="86.400009"
       height="86.400009"
       x="1576.8"
       y="676.80005" />
    <rect
       style="fill:#f7bd13;fill-opacity:1;stroke-width:0"
       id="connector71pad"
       width="86.400009"
       height="86.400009"
       x="1144.8"
       y="424.79999" />
    <rect
       style="fill:#f7bd13;fill-opacity:1;stroke-width:0"
       id="connector72pad"
       width="86.400009"
       height="86.400009"
       x="1360.8"
       y="424.79999" />
    <rect
       style="fill:#f7bd13;fill-opacity:1;stroke-width:0"
       id="connector73pad"
       width="86.400009"
       height="86.400009"
       x="1576.8"
       y="424.79999" />
    <rect
       style="fill:#f7bd13;fill-opacity:1;stroke-width:0"
       id="connector74pad"
       width="86.400009"
       height="86.400009"
       x="20.159994"
       y="20.160034" />
    <rect
       style="fill:#f7bd13;fill-opacity:1;stroke-width:0"
       id="connector75pad"
       width="86.400009"
       height="86.400009"
       x="20.159994"
       y="1333.4401" />
    <path
       sodipodi:type="arc"
       style="fill:#f7bd13;fill-opacity:1;stroke-width:0"
       id="path3074"
       sodipodi:cx="26.958447"
       sodipodi:cy="54.425911"
       sodipodi:rx="4.3310289"
       sodipodi:ry="1.4142135"
       d="m 31.289475,54.425911 c 0,0.781049 -1.939067,1.414213 -4.331028,1.414213 -2.391962,0 -4.331029,-0.633164 -4.331029,-1.414213 0,-0.781049 1.939067,-1.414214 4.331029,-1.414214 2.391961,0 4.331028,0.633165 4.331028,1.414214 z"
       transform="matrix(4.9872678,0,0,15.273508,823.15106,450.3255)" />
  </g>
</svg>
